<?xml version="1.0" standalone="no"?>
<!DOCTYPE svg PUBLIC "-//W3C//DTD SVG 20010904//EN"
 "http://www.w3.org/TR/2001/REC-SVG-20010904/DTD/svg10.dtd">
<svg version="1.0" xmlns="http://www.w3.org/2000/svg"
 width="724.000000pt" height="690.000000pt" viewBox="0 0 724.000000 690.000000"
 preserveAspectRatio="xMidYMid meet">
<metadata>
Created by potrace 1.16, written by Peter Selinger 2001-2019
</metadata>
<g transform="translate(0.000000,690.000000) scale(0.100000,-0.100000)"
fill="#000000" stroke="none">
<path d="M3555 6603 c-43 -2 -84 -8 -90 -12 -5 -5 -35 -16 -66 -25 -30 -8 -74
-29 -97 -46 -23 -16 -45 -30 -50 -30 -15 0 -100 -87 -117 -120 -14 -26 -17
-62 -17 -184 0 -83 6 -186 12 -229 12 -69 11 -79 -3 -95 -24 -27 -22 -109 3
-147 11 -16 20 -38 20 -48 0 -10 4 -16 8 -13 5 3 6 -9 4 -25 -5 -32 17 -58 49
-59 11 0 19 -12 23 -37 8 -46 36 -113 47 -113 33 0 53 -138 24 -166 -22 -23
-29 -63 -18 -105 9 -35 8 -39 -19 -59 -15 -11 -28 -28 -28 -37 0 -8 -8 -23
-19 -32 -27 -23 -60 -93 -64 -136 -3 -33 -13 -44 -88 -102 -46 -35 -97 -67
-113 -70 -16 -3 -31 -14 -33 -23 -3 -10 -17 -24 -31 -31 -15 -8 -33 -21 -42
-29 -9 -8 -35 -31 -58 -51 -23 -20 -42 -43 -42 -51 0 -8 -12 -28 -27 -45 -51
-54 -73 -87 -73 -108 0 -12 -5 -26 -11 -32 -5 -5 -14 -55 -19 -109 -5 -54 -16
-124 -25 -154 -28 -94 -45 -183 -45 -235 0 -27 -4 -55 -8 -60 -9 -14 -62 -18
-62 -5 0 5 -7 7 -15 4 -8 -4 -15 -1 -15 5 0 6 -10 11 -22 11 -19 0 -20 -2 -8
-10 12 -8 8 -10 -15 -11 -77 -5 -165 2 -171 13 -3 4 -17 8 -32 8 -32 0 -46 9
-55 33 -7 20 -29 22 -57 5 -18 -12 -18 -13 6 -29 14 -9 24 -20 22 -25 -2 -5 7
-10 20 -12 12 -2 22 -8 22 -14 0 -7 4 -7 13 1 8 6 16 8 19 5 3 -3 81 -5 173
-5 163 0 166 -1 163 -21 -3 -24 -15 -27 -118 -27 -101 -1 -92 0 -210 -6 -58
-2 -106 -9 -108 -14 -2 -6 -16 -8 -32 -4 -32 6 -90 -15 -90 -33 0 -18 32 -27
41 -12 6 9 44 15 117 18 68 3 115 10 125 18 13 11 17 10 25 -5 11 -19 22 -19
175 -10 37 3 67 1 67 -4 0 -5 -21 -9 -47 -10 -84 -1 -94 -14 -25 -29 71 -15
67 -4 52 -145 -5 -49 -10 -115 -11 -145 -2 -49 -17 -115 -18 -82 -1 10 -32 13
-146 10 -132 -2 -161 -7 -137 -22 5 -3 70 -6 145 -7 82 0 140 -5 143 -11 4 -6
8 -27 10 -47 5 -47 5 -273 1 -278 -11 -11 -156 -20 -217 -13 -46 5 -85 4 -108
-3 -21 -6 -40 -10 -44 -9 -5 1 -8 -3 -8 -8 0 -6 -6 -10 -12 -9 -20 2 -58 -12
-58 -22 0 -5 -7 -9 -15 -9 -8 0 -15 5 -15 10 0 6 -11 10 -23 10 -13 0 -38 7
-55 16 -17 8 -64 18 -104 21 -40 3 -78 10 -85 15 -7 6 -14 5 -18 -2 -7 -11
-163 -5 -174 6 -2 2 -10 -1 -18 -7 -9 -9 -17 -8 -28 1 -8 6 -19 9 -25 5 -5 -3
-10 -3 -10 2 0 4 -28 9 -62 10 -64 1 -101 6 -128 16 -34 12 -80 16 -80 6 0 -6
-6 -6 -17 -1 -10 5 -23 7 -30 5 -6 -2 -14 1 -18 6 -3 6 -1 11 4 11 6 0 11 5
11 10 0 7 -6 7 -17 2 -10 -5 -103 -10 -206 -10 -103 -1 -196 -6 -205 -11 -9
-5 -45 -12 -80 -15 -35 -3 -84 -11 -109 -18 -35 -8 -54 -8 -78 1 -18 6 -40 9
-49 5 -25 -9 -66 4 -66 22 0 14 -8 15 -47 9 -27 -4 -56 -12 -67 -17 -17 -9
-56 -17 -96 -19 -8 -1 -35 1 -60 3 -25 3 -51 3 -58 0 -9 -3 -12 -101 -12 -442
l0 -438 23 -7 c17 -6 19 -8 6 -12 -10 -2 -19 -18 -23 -36 -3 -18 -5 -188 -6
-379 -1 -320 4 -382 25 -348 3 5 11 10 17 10 6 0 3 -9 -7 -20 -10 -11 -22 -17
-26 -14 -5 3 -9 -266 -9 -610 l0 -616 259 0 c198 0 261 3 265 13 5 9 7 9 12
-1 8 -18 690 -17 698 1 3 9 5 9 5 0 1 -17 170 -18 207 -1 22 10 28 10 31 1 4
-10 153 -13 666 -13 368 0 656 4 648 9 -8 5 -9 11 -3 15 5 3 12 -1 16 -9 4
-10 20 -15 51 -15 28 0 44 4 40 10 -3 6 -2 10 4 10 5 0 12 -4 16 -10 3 -6 459
-9 1227 -9 1148 -1 1222 0 1234 17 13 16 13 16 14 0 0 -17 16 -18 184 -18 113
0 187 4 191 10 3 6 11 10 16 10 6 0 7 -5 4 -10 -5 -8 32 -10 114 -9 67 1 124
6 127 10 3 5 10 9 15 9 6 0 7 -4 4 -10 -4 -6 121 -10 360 -10 226 0 364 4 360
10 -3 5 -12 7 -20 3 -8 -3 -15 0 -15 6 0 17 47 13 54 -4 4 -13 39 -15 223 -15
145 0 213 4 203 10 -8 5 -10 10 -5 10 6 0 16 -5 23 -12 9 -9 12 11 11 90 0 56
-5 104 -10 108 -5 3 -9 12 -9 20 0 8 5 12 10 9 6 -4 10 20 10 64 0 61 -3 71
-17 71 -17 1 -17 1 0 11 24 14 24 86 0 91 -15 3 -15 5 -2 18 20 20 25 171 7
168 -7 -2 -12 3 -10 9 1 7 -5 13 -14 13 -23 0 -11 24 14 28 18 3 22 10 22 39
0 30 -3 35 -20 30 -24 -6 -34 7 -22 29 6 11 11 13 16 5 15 -24 26 -9 25 37 0
26 -3 41 -6 35 -2 -7 -12 -13 -21 -13 -8 0 -13 2 -10 6 3 3 2 21 -2 40 -8 34
-7 35 16 30 22 -6 24 -3 24 28 0 44 -41 88 -52 55 -5 -14 -45 3 -82 35 -28 25
-96 37 -96 17 0 -5 7 -8 16 -7 23 2 29 -20 7 -28 -11 -5 -22 -1 -29 9 -9 12
-13 13 -16 3 -3 -7 16 -32 41 -55 25 -24 40 -43 33 -43 -7 0 -28 16 -48 35
-22 23 -44 35 -62 35 -50 0 -68 11 -78 43 -5 18 -15 31 -22 30 -16 -4 -15 9 1
26 10 12 8 13 -8 6 -44 -16 -58 -18 -51 -6 4 6 12 9 17 6 14 -9 11 21 -4 33
-8 7 -18 7 -27 2 -8 -6 -25 -10 -37 -10 -16 0 -23 -6 -23 -19 0 -28 -17 -35
-53 -20 -43 17 -43 16 -16 38 l24 19 -30 7 c-55 12 -65 16 -65 24 0 5 11 6 25
3 15 -2 25 0 25 7 0 8 -16 11 -46 9 -37 -3 -44 -6 -40 -20 2 -10 0 -18 -5 -18
-5 0 -9 5 -9 10 0 6 -7 10 -15 10 -8 0 -15 6 -16 13 0 6 -4 1 -10 -11 -5 -13
-7 -36 -4 -52 4 -24 1 -30 -28 -41 -17 -7 -40 -12 -50 -11 -10 1 -17 -3 -15
-10 5 -14 36 -19 44 -7 3 5 12 2 21 -7 10 -10 27 -14 45 -12 18 3 28 0 28 -8
0 -7 -13 -11 -35 -10 -22 1 -35 -3 -35 -11 0 -7 -4 -13 -10 -13 -5 0 -10 4
-10 9 0 5 -22 17 -50 26 -48 16 -67 35 -34 35 12 0 15 6 10 25 -5 19 -2 25 9
25 9 0 14 4 10 9 -3 6 2 14 11 19 13 7 12 11 -10 26 -30 19 -34 36 -8 36 14 0
14 2 3 9 -20 13 -24 61 -5 61 8 0 14 -4 14 -10 0 -5 9 -10 19 -10 10 0 21 -7
25 -15 3 -8 12 -15 20 -15 8 0 16 -6 19 -12 2 -8 8 -9 13 -4 5 5 4 11 -3 13
-23 8 -14 23 15 24 16 1 20 3 10 6 -23 6 -23 11 5 34 28 24 40 24 28 1 -6 -11
-9 -29 -8 -40 1 -18 11 -24 59 -34 32 -7 58 -16 58 -20 0 -16 23 -7 47 18 18
20 21 29 13 40 -13 15 -64 9 -90 -10 -13 -10 -13 -9 -1 6 21 28 6 52 -29 44
-17 -3 -30 -1 -30 4 0 17 51 11 77 -10 19 -15 30 -17 44 -9 13 7 19 6 19 -1 0
-10 16 -8 58 8 7 2 12 1 10 -4 -2 -5 1 -10 6 -11 5 -1 12 -7 17 -14 6 -10 11
-10 21 -1 11 9 18 7 30 -8 14 -16 22 -17 53 -9 44 12 56 5 31 -19 -14 -13 -20
-14 -23 -4 -4 10 -8 8 -18 -5 -13 -17 -15 -17 -43 4 -30 22 -52 16 -52 -14 0
-11 -37 -33 -56 -33 -13 0 23 40 41 45 20 5 20 6 1 20 -11 8 -24 15 -30 15 -5
0 -1 -7 10 -15 11 -8 14 -14 6 -15 -17 0 -71 -62 -72 -82 0 -9 -8 -18 -17 -20
-15 -3 -14 -5 4 -10 18 -5 22 -1 28 28 5 30 25 49 25 24 0 -13 47 -13 55 0 4
6 15 4 29 -5 12 -8 25 -12 29 -9 7 8 37 -20 37 -35 0 -12 32 -14 79 -5 25 5
29 9 20 20 -9 11 -7 14 9 14 21 0 34 -30 22 -50 -5 -8 -19 -11 -34 -8 -17 4
-25 1 -23 -6 2 -6 15 -10 28 -9 13 2 36 4 51 6 34 3 46 15 24 23 -20 8 -21 24
-1 24 8 0 19 -9 25 -20 8 -14 21 -20 45 -20 24 0 37 -6 45 -20 17 -31 30 -24
28 15 -1 39 -15 56 -24 31 -3 -9 -10 -13 -15 -10 -15 9 -10 24 7 24 8 0 12 5
9 10 -9 14 8 12 24 -3 11 -10 12 -7 7 16 -5 23 -3 30 12 34 18 4 19 16 20 129
1 88 -2 124 -10 124 -9 0 -9 3 0 12 16 16 15 75 0 81 -10 4 -10 6 0 6 8 1 12
20 12 60 0 55 -1 59 -21 54 -16 -4 -20 -2 -17 8 3 8 12 13 22 11 13 -2 16 5
16 37 0 22 -5 42 -12 44 -10 4 -10 6 0 6 9 1 12 105 12 484 l0 482 -22 2 c-13
1 -43 4 -68 8 -33 5 -50 2 -65 -8 -20 -15 -19 -16 6 -22 20 -5 25 -11 22 -26
-4 -14 -14 -19 -40 -19 -30 0 -35 -3 -30 -20 3 -13 0 -20 -10 -20 -8 0 -12 4
-9 9 3 4 -12 7 -34 5 -30 -2 -38 1 -33 12 4 10 0 12 -11 8 -11 -4 -16 -1 -16
10 0 18 -15 22 -25 6 -3 -5 -1 -10 5 -10 6 0 10 -8 8 -17 -5 -26 -58 -26 -58
0 0 12 -6 17 -17 15 -10 -2 -17 -10 -16 -16 2 -7 -2 -12 -7 -12 -18 0 -25 -2
-41 -10 -10 -6 -27 -2 -48 11 -43 26 -121 18 -121 -12 0 -23 -15 -25 -24 -4
-3 8 -12 15 -20 15 -8 0 -17 6 -20 13 -3 7 -5 7 -3 -3 1 -8 -1 -16 -6 -17 -17
-6 -27 -2 -27 12 0 18 -31 20 -49 2 -10 -10 -12 -9 -9 3 2 9 -4 14 -14 14 -10
-1 -18 2 -18 7 0 5 -7 9 -15 9 -8 0 -15 6 -15 13 0 8 -17 12 -52 13 -29 0
-134 3 -233 8 -247 12 -316 13 -321 4 -5 -8 -19 -7 -67 7 -17 4 -33 3 -42 -5
-12 -10 -16 -9 -21 4 -3 9 -13 16 -21 16 -8 0 -12 -3 -10 -7 3 -5 -23 -8 -58
-9 l-63 -1 -11 37 c-6 21 -14 80 -17 131 -3 52 -14 135 -24 184 -10 50 -21
104 -23 120 l-5 30 596 2 c694 3 1213 11 1220 18 7 7 1 7 -568 7 -272 0 -476
4 -453 7 24 4 45 10 49 13 9 10 -103 21 -133 13 -16 -4 -57 -6 -92 -6 -81 1
-70 -16 14 -22 33 -3 -70 -2 -230 1 -357 6 -323 6 -366 -1 l-36 -6 -6 104 c-3
57 -10 121 -16 142 -5 21 -15 67 -21 103 -6 36 -16 70 -21 76 -9 11 -32 113
-44 193 -6 41 -44 152 -66 193 -5 10 -9 31 -9 47 0 15 -10 50 -22 77 -12 27
-23 59 -24 71 -1 12 -9 37 -17 55 -8 18 -18 45 -21 61 -5 23 -3 27 16 28 17 1
19 2 6 6 -10 2 -18 11 -18 19 0 20 -18 17 -23 -3 -2 -12 -15 6 -37 50 -18 37
-41 73 -50 80 -10 7 -26 26 -37 44 -11 18 -31 42 -46 53 -32 25 -35 40 -8 33
11 -3 28 0 38 6 15 9 14 10 -14 11 -17 0 -34 4 -38 10 -3 5 -12 7 -20 4 -8 -3
-34 8 -59 25 -25 17 -65 40 -90 51 -25 10 -54 28 -66 40 -12 12 -36 28 -53 36
-18 8 -52 28 -77 44 -25 15 -54 29 -66 29 -21 1 -64 39 -64 58 0 6 -28 28 -61
49 -36 22 -72 54 -87 78 -49 79 -60 82 -192 60 -33 -5 -37 -3 -58 34 -15 27
-22 57 -22 93 -1 58 -14 84 -45 90 -25 5 -32 62 -15 137 9 41 17 55 39 67 35
17 71 112 78 200 4 55 2 63 -21 89 -24 25 -26 32 -19 79 14 91 7 277 -9 277
-5 0 -8 8 -8 18 0 10 -9 35 -20 57 -11 22 -20 50 -20 62 0 14 -6 23 -15 23 -8
0 -15 4 -15 8 0 5 -11 15 -25 22 -14 7 -25 21 -25 31 0 39 -42 68 -120 84 -41
9 -81 22 -90 30 -9 8 -27 14 -41 13 -13 -1 -60 -4 -104 -5z m-2575 -3998 c22
-14 144 -16 152 -2 4 6 10 8 14 4 4 -4 -1 -14 -12 -22 -26 -20 -9 -19 26 1 21
13 37 15 66 8 22 -4 49 -7 62 -6 12 2 22 -2 22 -8 0 -5 -13 -10 -30 -10 -16 0
-30 -5 -30 -11 0 -5 -4 -7 -10 -4 -5 3 -10 1 -10 -4 0 -6 12 -11 27 -11 25 0
26 -2 12 -15 -15 -16 -49 -11 -49 6 0 20 -18 7 -24 -16 -5 -18 -13 -24 -29
-23 -12 0 -29 -1 -37 -3 -10 -3 -14 2 -12 14 2 11 -4 17 -16 17 -10 0 -23 5
-30 12 -8 8 -15 8 -25 0 -8 -7 -17 -9 -21 -5 -4 4 -9 -3 -13 -15 -3 -15 -13
-22 -28 -22 -22 0 -40 -24 -30 -40 3 -4 -2 -11 -11 -14 -14 -5 -16 -1 -10 24
4 22 2 29 -5 24 -7 -4 -10 -1 -7 7 2 8 17 15 31 17 24 3 25 5 12 18 -8 9 -19
12 -25 9 -5 -3 -10 0 -10 7 0 8 -16 14 -42 16 -42 3 -81 22 -45 22 10 0 17 8
17 19 0 17 7 19 53 17 29 -1 59 -6 67 -11z m4693 -657 c47 4 88 -13 80 -34 -3
-9 -8 -12 -12 -5 -4 5 -26 14 -49 19 -32 8 -42 7 -42 -3 0 -15 27 -28 41 -19
5 3 9 0 9 -7 0 -17 -31 -38 -57 -39 -34 0 -52 -10 -46 -26 6 -17 29 -18 37 -1
5 10 7 10 12 0 3 -8 24 -13 49 -13 47 0 77 -22 57 -42 -8 -8 -15 -8 -27 2 -10
8 -45 14 -86 15 -38 1 -65 -1 -58 -5 17 -11 -3 -19 -26 -9 -11 4 -14 8 -6 8 9
1 11 7 6 19 -4 9 -8 22 -8 28 0 14 -70 9 -75 -5 -2 -6 -10 -11 -18 -11 -9 0
-13 4 -10 8 2 4 -4 13 -14 20 -11 6 -21 8 -24 3 -3 -5 -17 -6 -31 -3 -24 4
-24 5 -8 17 10 7 21 11 25 9 4 -3 5 1 2 9 -4 11 4 14 35 13 23 0 41 -3 41 -6
0 -10 59 -9 65 1 4 5 11 7 16 3 25 -15 64 -14 76 2 15 21 0 54 -25 54 -15 -1
-15 -2 2 -15 11 -8 18 -17 15 -19 -8 -8 -54 -10 -66 -3 -7 5 -13 5 -13 0 0
-15 -68 -14 -74 2 -4 12 4 15 39 15 25 0 45 5 45 10 0 6 7 10 15 10 8 0 15 5
15 11 0 5 4 8 9 4 5 -3 13 0 17 6 5 9 11 6 21 -7 9 -13 23 -18 46 -16z m323
-363 c7 -19 14 -46 14 -60 0 -28 20 -35 20 -7 0 9 6 24 13 33 16 20 47 32 47
17 0 -6 -8 -20 -17 -31 -10 -11 -13 -22 -8 -24 25 -9 37 -22 30 -33 -5 -8 -10
-9 -18 -1 -14 14 -47 14 -47 1 0 -6 -6 -10 -12 -8 -19 3 -117 -23 -124 -33
-11 -19 -24 -8 -24 21 0 17 -5 30 -11 30 -5 0 -8 -4 -4 -9 7 -12 -32 -34 -45
-26 -6 3 -10 -1 -10 -9 0 -25 -20 -18 -30 10 -9 23 -15 26 -43 22 -17 -3 -41
-2 -52 3 -17 6 -17 8 -2 8 22 1 23 21 0 21 -13 0 -14 3 -6 11 9 9 8 15 -2 25
-16 16 -29 19 -20 4 4 -6 -7 -10 -27 -10 -27 1 -30 2 -15 11 9 6 15 14 12 19
-3 5 -1 11 5 15 5 3 10 1 10 -6 0 -8 3 -9 13 0 8 6 17 8 21 4 8 -8 31 -11 106
-16 30 -1 60 -6 67 -10 6 -4 13 -2 15 5 3 8 9 8 22 1 25 -14 56 -5 57 16 0 11
3 9 9 -6 5 -12 7 -35 5 -51 -3 -26 0 -29 27 -30 23 -1 28 3 24 14 -3 9 -6 22
-6 30 0 8 -6 11 -15 8 -11 -5 -15 1 -15 19 0 14 -3 32 -6 41 -13 34 27 15 42
-19z m14 -144 c0 -5 10 -7 21 -4 19 5 20 4 9 -16 -9 -18 -9 -22 2 -19 8 2 14
-1 14 -7 0 -5 -7 -9 -16 -7 -10 3 -9 -1 5 -11 22 -17 45 -12 45 10 0 9 6 13
15 9 18 -6 20 5 3 22 -18 18 -3 25 21 10 15 -9 20 -20 16 -34 -4 -18 1 -23 30
-28 37 -7 42 -15 23 -34 -9 -9 -8 -12 5 -12 9 0 17 -2 17 -4 0 -2 3 -11 6 -20
5 -12 0 -16 -20 -16 -19 0 -26 5 -26 19 0 11 -6 22 -12 24 -10 4 -9 8 2 16 8
6 10 11 5 11 -6 0 -19 -10 -29 -21 -11 -14 -21 -18 -25 -11 -3 6 -20 14 -36
18 -27 7 -29 6 -16 -9 7 -10 19 -17 26 -17 7 0 24 -6 38 -13 20 -10 23 -17 15
-25 -9 -9 -16 -8 -30 5 -17 15 -19 15 -38 -2 -17 -16 -20 -16 -15 -3 8 20 -12
61 -26 53 -5 -4 -7 -11 -4 -16 4 -5 -1 -9 -11 -9 -13 0 -14 3 -5 13 6 8 8 17
4 20 -11 12 -125 8 -118 -3 4 -6 12 -9 18 -8 7 1 22 -4 35 -11 l23 -12 -30
-30 c-17 -16 -31 -36 -31 -44 0 -8 -4 -15 -9 -15 -14 0 -32 26 -23 35 4 5 1 5
-5 1 -7 -4 -22 2 -35 13 -12 12 -18 21 -12 21 5 0 4 4 -3 8 -9 6 -7 11 7 20
17 11 20 10 20 -8 0 -20 25 -38 37 -27 7 7 -19 67 -29 67 -5 0 -8 5 -8 11 0 6
7 9 15 5 9 -3 15 0 15 8 0 8 6 17 13 19 7 3 5 6 -5 6 -25 1 -98 -29 -98 -41 0
-6 9 -8 20 -5 11 3 20 1 20 -4 0 -5 -6 -9 -14 -9 -7 0 -16 -9 -19 -20 -8 -30
-27 -24 -23 8 7 56 18 81 32 75 8 -3 14 0 14 7 0 8 -9 10 -25 6 -14 -4 -25 -2
-25 4 0 5 14 10 30 10 17 0 30 5 30 13 0 9 3 8 9 -2 6 -10 19 -12 44 -7 19 4
37 3 39 -2 1 -5 14 -13 27 -17 20 -6 23 -4 17 10 -3 9 -4 21 0 26 7 12 34 12
34 0z m281 -181 c6 0 7 -5 4 -10 -4 -6 -11 -8 -16 -5 -15 10 -10 -22 6 -35 22
-18 18 -26 -12 -25 -18 0 -28 -5 -28 -15 0 -11 15 -16 54 -20 51 -5 54 -6 38
-22 -19 -19 -22 -59 -7 -74 7 -7 7 -19 1 -35 l-10 -24 0 26 c-1 20 -7 28 -26
33 -16 4 -25 13 -23 23 2 9 -3 18 -9 20 -8 3 -13 -5 -13 -21 0 -20 -5 -26 -22
-26 -37 0 -66 11 -72 26 -4 12 -2 12 15 4 11 -6 28 -9 37 -7 12 3 11 5 -5 6
-18 1 -23 7 -23 29 0 21 -7 30 -30 40 -16 8 -36 11 -42 9 -7 -3 -3 -6 10 -6
31 -1 29 -31 -3 -31 -14 0 -25 4 -25 10 0 5 -7 7 -16 3 -9 -3 -20 0 -24 7 -7
11 -11 11 -24 1 -9 -7 -13 -17 -10 -22 3 -5 -6 -9 -20 -9 -17 0 -26 5 -26 16
0 13 3 14 14 5 12 -10 18 -7 31 18 16 32 29 39 41 20 4 -8 9 -8 17 0 14 14 4
23 -24 25 -12 0 -24 7 -26 13 -3 9 4 11 27 7 17 -4 30 -3 29 2 -5 27 2 32 38
23 48 -10 110 3 137 31 17 17 22 18 24 5 2 -8 8 -15 13 -15z m-3935 -82 c20
-11 34 -28 34 -39 0 -12 7 -19 19 -19 26 0 37 -18 17 -26 -9 -3 -16 -12 -16
-19 0 -7 -6 -16 -12 -18 -8 -3 -6 -6 5 -6 9 -1 17 -6 17 -12 0 -6 -7 -9 -15
-5 -9 3 -15 0 -15 -9 0 -8 4 -15 9 -15 15 0 -18 -58 -42 -75 -32 -23 -37 -19
-37 29 0 38 -2 43 -19 39 -20 -5 -42 18 -23 25 7 2 12 16 12 31 0 15 7 51 16
81 l16 53 -39 34 c-36 33 -37 34 -11 29 16 -4 30 -1 35 6 5 8 9 -1 11 -25 3
-32 9 -42 38 -59z m4415 -169 c8 -16 8 -23 -1 -29 -9 -6 -8 -14 5 -33 9 -15
14 -31 10 -37 -3 -5 -1 -10 4 -10 6 0 11 6 11 13 0 14 40 37 65 37 8 0 15 5
15 11 0 6 -8 8 -17 5 -10 -3 -25 -1 -33 4 -13 9 -13 11 0 20 19 13 30 13 30 0
0 -5 5 -10 10 -10 21 0 -15 39 -40 43 -14 2 -4 5 21 6 34 1 50 -4 63 -18 12
-13 14 -21 6 -26 -14 -9 -3 -25 14 -19 8 3 11 15 8 31 -4 20 -2 24 9 17 17
-10 35 -24 60 -46 10 -10 25 -18 32 -18 6 0 19 -11 29 -24 19 -26 9 -52 -17
-43 -9 4 -14 11 -11 16 7 11 -14 20 -31 13 -7 -2 -10 -9 -7 -14 7 -11 -16 -29
-28 -22 -8 5 10 44 25 55 4 3 -9 5 -30 4 -32 -1 -38 -5 -37 -22 0 -18 -7 -23
-39 -28 -23 -4 -43 -3 -49 3 -7 7 -19 7 -35 1 -17 -6 -33 -5 -51 3 -29 15 -44
42 -17 32 13 -5 16 -2 13 12 -2 10 -9 18 -15 17 -7 -2 -12 13 -11 37 0 45 20
54 39 19z"/>
<path d="M2220 5000 c-8 -5 -38 -10 -67 -10 -28 0 -55 -5 -59 -11 -4 -7 -22
-9 -48 -5 -38 6 -40 5 -22 -9 13 -10 45 -15 95 -16 106 -2 122 -4 132 -20 6
-10 36 -15 104 -17 99 -4 150 2 140 17 -2 5 6 12 20 15 58 15 -2 47 -77 42
-27 -1 -48 1 -48 5 0 4 -14 4 -30 -1 -21 -6 -38 -4 -58 6 -31 16 -61 18 -82 4z"/>
<path d="M1170 4323 c-19 -3 -38 -7 -42 -11 -4 -4 -62 -4 -130 -1 -68 3 -131
2 -140 -3 -9 -4 -41 -11 -70 -14 -29 -3 -54 -10 -56 -15 -2 -5 -8 -9 -13 -9
-4 0 -6 6 -3 13 4 11 -11 13 -76 9 -60 -3 -80 -1 -80 8 0 9 -11 11 -43 5 -23
-3 -57 -9 -74 -12 -42 -7 -43 -23 -2 -23 16 0 28 -4 24 -9 -11 -20 132 -27
161 -8 6 3 59 4 118 1 59 -2 112 -1 118 2 6 4 57 8 112 9 74 2 100 6 98 15 -2
8 3 10 15 5 23 -9 202 -14 208 -5 10 17 -47 53 -78 48 -7 0 -28 -3 -47 -5z"/>
<path d="M765 3975 c-45 -18 -54 -24 -35 -26 14 -1 3 -5 -25 -10 -84 -15 -96
-19 -90 -29 3 -6 17 -10 30 -10 13 0 27 -5 31 -11 5 -8 35 -10 98 -6 75 5 87
4 69 -6 -16 -9 -19 -16 -12 -28 7 -14 1 -18 -39 -24 -26 -4 -87 -9 -137 -10
-49 -2 -117 -8 -150 -14 -33 -6 -75 -8 -93 -5 -32 6 -122 -12 -122 -25 0 -13
284 -5 313 9 22 11 30 11 36 2 5 -8 36 -13 79 -15 40 -1 72 -6 72 -11 0 -5 23
-6 50 -4 38 4 53 1 59 -10 7 -12 9 -12 14 2 7 18 62 22 72 6 4 -6 -5 -10 -19
-10 -14 0 -26 -5 -26 -10 0 -7 13 -9 33 -5 17 3 48 7 67 9 26 3 34 8 32 20 -2
9 4 16 13 16 8 0 15 4 15 10 0 5 7 7 15 4 8 -4 15 -1 15 5 0 6 10 12 23 12 21
1 21 2 -3 8 -14 4 -40 14 -59 23 -29 13 -37 13 -62 1 -18 -9 -41 -12 -64 -7
-55 10 -50 21 13 27 31 3 68 8 82 13 36 11 210 17 210 7 0 -4 27 -8 60 -8 33
0 60 -3 60 -7 0 -5 11 -8 25 -8 18 0 28 7 35 26 6 14 19 28 29 31 19 5 37 43
20 43 -5 0 -9 -5 -9 -11 0 -6 -8 -8 -19 -4 -19 6 -57 -10 -74 -30 -6 -6 -10
-5 -14 3 -4 10 -9 9 -24 -4 -15 -13 -22 -15 -31 -6 -15 15 -74 16 -83 2 -4 -6
-11 -7 -17 -4 -19 12 -122 13 -136 1 -11 -9 -18 -6 -33 12 -14 17 -25 22 -43
17 -14 -3 -27 -2 -30 3 -3 4 -19 11 -36 14 -16 4 -30 13 -30 21 0 11 -8 12
-34 6 -37 -8 -63 1 -52 19 10 15 0 13 -69 -14z"/>
<path d="M1215 3815 c-16 -8 -23 -15 -15 -15 8 0 2 -7 -15 -15 -27 -12 -21
-13 80 -12 61 0 153 -3 207 -7 99 -9 140 -4 121 15 -13 13 -134 31 -228 34
-38 1 -81 5 -95 8 -14 3 -38 0 -55 -8z"/>
<path d="M6797 3813 c-4 -3 -7 -17 -7 -30 0 -23 -1 -23 -17 -8 -14 14 -14 18
-2 26 18 12 -49 0 -75 -13 -13 -7 -21 -6 -26 2 -6 9 -12 9 -29 0 -12 -6 -47
-13 -77 -14 -50 -2 -90 -16 -48 -16 40 -1 151 -10 184 -16 19 -3 78 -7 130 -8
112 -4 109 -4 90 -16 -13 -8 -12 -10 3 -10 10 0 16 -4 13 -9 -3 -5 -25 -2 -48
6 -31 10 -48 12 -60 4 -10 -6 -28 -7 -45 -2 -47 14 -244 2 -271 -16 -13 -8
-21 -17 -18 -21 9 -9 474 -17 541 -9 17 2 69 5 118 5 l88 2 -2 58 c-1 31 -4
51 -6 44 -3 -6 -9 -10 -14 -6 -5 3 -9 0 -9 -5 0 -7 -23 -11 -54 -11 -30 0 -58
-4 -61 -10 -9 -15 -87 -12 -115 5 -14 8 -33 18 -42 21 -10 3 -18 13 -18 20 0
22 -27 16 -33 -6 -3 -11 -10 -20 -16 -20 -6 0 -11 9 -11 20 0 11 -7 20 -15 20
-8 0 -15 5 -15 10 0 11 -23 14 -33 3z"/>
<path d="M1695 3670 c-91 -19 -114 -21 -244 -21 -152 0 -243 -7 -236 -19 5 -9
-45 -19 -125 -26 -30 -3 -57 -9 -60 -13 -5 -7 -126 2 -165 12 -11 3 -23 6 -27
6 -4 1 -5 8 -2 16 4 9 0 15 -10 15 -9 0 -16 -4 -16 -10 0 -5 -18 -10 -41 -10
-32 0 -40 3 -35 15 7 18 3 18 -54 1 -54 -16 -68 -46 -21 -46 16 0 33 5 36 11
13 19 95 -8 122 -41 7 -8 13 -10 13 -4 0 7 44 11 124 12 69 1 136 6 151 12 14
5 59 10 100 10 41 0 76 4 79 9 15 23 134 29 209 11 45 -10 60 -11 66 -2 4 7
32 15 62 17 46 5 51 4 32 -6 -13 -7 -23 -18 -23 -26 0 -15 26 -18 35 -3 3 6
18 10 32 10 17 0 27 7 30 20 5 19 11 20 101 14 80 -6 94 -5 87 7 -7 11 -6 12
6 2 17 -14 45 -1 35 16 -4 6 -37 11 -77 11 -44 0 -68 -4 -64 -10 3 -5 -3 -10
-14 -10 -23 0 -28 15 -8 23 19 8 -54 6 -98 -3z"/>
<path d="M946 3465 c-20 -8 -25 -14 -15 -18 10 -4 9 -6 -3 -6 -10 -1 -18 -6
-18 -12 0 -7 21 -10 58 -9 83 3 91 2 72 -11 -11 -8 -5 -9 23 -5 30 4 44 0 60
-14 11 -11 26 -20 31 -20 6 0 4 4 -4 10 -8 5 -11 12 -7 16 3 4 13 2 20 -5 8
-6 34 -9 58 -8 24 2 49 0 54 -4 12 -8 65 0 65 11 0 13 -50 30 -88 30 -20 0
-77 7 -126 15 -50 8 -110 12 -135 9 -43 -5 -45 -4 -27 10 26 21 18 26 -18 11z"/>
<path d="M0 3411 c0 -47 -16 -43 160 -45 78 -1 104 -4 103 -13 -3 -13 61 -17
250 -16 42 0 77 -3 77 -8 0 -5 12 -8 28 -7 53 3 93 -2 87 -12 -7 -12 28 -14
39 -2 4 4 91 7 192 7 101 0 184 -3 184 -7 0 -12 45 -9 58 4 9 9 17 9 34 0 26
-13 117 -30 198 -37 152 -12 203 -15 425 -20 137 -3 243 -9 249 -15 13 -13 63
-13 71 1 11 16 3 19 -58 20 -32 1 -57 6 -57 11 0 5 -4 7 -9 4 -4 -3 -62 2
-127 11 -118 15 -140 17 -179 13 -29 -3 -234 8 -280 15 -22 4 -51 2 -65 -3
-20 -8 -31 -6 -48 9 -21 17 -41 20 -124 20 -15 0 -30 3 -32 8 -3 4 -29 4 -58
1 -38 -5 -56 -3 -66 7 -7 7 -29 13 -47 13 -19 0 -36 4 -40 10 -7 11 -35 2 -50
-16 -5 -7 -29 -15 -51 -19 -34 -5 -43 -3 -48 11 -8 20 8 42 18 25 4 -6 23 -11
42 -11 22 0 33 4 29 11 -4 6 -13 8 -21 5 -8 -3 -14 -2 -14 3 0 10 -157 31
-176 24 -20 -7 -17 -23 4 -24 9 -1 31 -3 47 -4 17 -1 35 2 42 7 8 7 10 3 6
-11 -4 -17 -13 -21 -44 -21 -24 0 -39 5 -39 12 0 9 -3 9 -12 0 -17 -17 -28
-15 -28 7 0 11 -5 23 -11 27 -7 4 -9 0 -5 -14 6 -18 2 -20 -49 -24 -31 -1 -60
1 -64 5 -4 4 -18 4 -31 -1 -26 -10 -70 -4 -70 9 0 5 -7 9 -15 9 -8 0 -15 -4
-15 -8 0 -15 -118 -5 -146 13 -19 12 -29 14 -34 6 -5 -9 -10 -8 -20 4 -7 8
-21 15 -30 15 -10 0 -20 4 -22 9 -1 6 -38 13 -80 17 l-78 7 0 -42z"/>
</g>
</svg>
